<svg width="20" height="20" viewBox="0 0 20 20" fill="none" xmlns="http://www.w3.org/2000/svg">
<g opacity="0.7">
<path fill-rule="evenodd" clip-rule="evenodd" d="M10.7101 1.28917C12.6991 1.48808 14.5545 2.38167 15.9501 3.81292C17.4704 5.35742 18.3693 7.40737 18.4754 9.57204C18.5814 11.7367 17.8872 13.8647 16.5251 15.5504C15.2722 17.1077 13.5141 18.1776 11.5554 18.5748C9.59658 18.9721 7.56055 18.6716 5.80005 17.7254C4.03577 16.7588 2.65846 15.2137 1.90005 13.3504C1.13825 11.4775 1.03685 9.4011 1.61255 7.46292C2.18702 5.53228 3.40999 3.85897 5.07505 2.72542C6.72611 1.59906 8.72128 1.09053 10.7101 1.28917ZM11.3 17.3504C12.9786 17.01 14.4859 16.095 15.5625 14.7629C16.7283 13.3141 17.3214 11.4876 17.2292 9.6303C17.1371 7.77299 16.366 6.0142 15.0625 4.68792C13.8686 3.46918 12.2844 2.70882 10.5867 2.53974C8.889 2.37065 7.18589 2.80361 5.77505 3.76292C4.71309 4.49466 3.85555 5.48542 3.28364 6.64133C2.71174 7.79724 2.44442 9.08002 2.50701 10.3682C2.5696 11.6563 2.96003 12.9071 3.64131 14.0021C4.32259 15.0971 5.27215 16.0001 6.40005 16.6254C7.89796 17.4338 9.63222 17.6904 11.3 17.3504ZM9.2188 7.50042H10.7813V6.25042H9.2188V7.50042ZM10.7813 8.75042V13.7504H9.2188V8.75042H10.7813Z" fill="white"/>
</g>
</svg>
