<svg width="18" height="18" viewBox="0 0 18 18" fill="none" xmlns="http://www.w3.org/2000/svg">
<g opacity="0.7" clip-path="url(#clip0_158_2068)">
<path d="M1.5 9C1.5 13.1422 4.85775 16.5 9 16.5C13.1422 16.5 16.5 13.1422 16.5 9C16.5 4.85775 13.1422 1.5 9 1.5C4.85775 1.5 1.5 4.85775 1.5 9Z" stroke="white" stroke-width="1.125" stroke-linecap="round" stroke-linejoin="round"/>
<path d="M9.74997 1.53711C9.74997 1.53711 12 4.49961 12 8.99961C12 13.4996 9.74997 16.4621 9.74997 16.4621M8.24997 16.4621C8.24997 16.4621 5.99997 13.4996 5.99997 8.99961C5.99997 4.49961 8.24997 1.53711 8.24997 1.53711M1.97247 11.6246H16.0275M1.97247 6.37461H16.0275" stroke="white" stroke-width="1.125" stroke-linecap="round" stroke-linejoin="round"/>
</g>
<defs>
<clipPath id="clip0_158_2068">
<rect width="18" height="18" fill="white"/>
</clipPath>
</defs>
</svg>
