<svg width="32" height="32" viewBox="0 0 32 32" fill="none" xmlns="http://www.w3.org/2000/svg">
<path d="M14.4 0C10.5809 0 6.91819 1.51714 4.21766 4.21766C1.51714 6.91819 0 10.5809 0 14.4C0 18.2191 1.51714 21.8818 4.21766 24.5823C6.91819 27.2829 10.5809 28.8 14.4 28.8C18.2191 28.8 21.8818 27.2829 24.5823 24.5823C27.2829 21.8818 28.8 18.2191 28.8 14.4C28.8 10.5809 27.2829 6.91819 24.5823 4.21766C21.8818 1.51714 18.2191 0 14.4 0ZM1.776 15.488H5.792C5.856 16.944 6.0592 18.3904 6.4 19.808H2.944C2.29953 18.4494 1.90393 16.9862 1.776 15.488ZM15.488 6.848V1.904C17.0299 2.48996 18.2969 3.6314 19.04 5.104C19.368 5.6592 19.6576 6.2368 19.904 6.832L15.488 6.848ZM20.64 9.008C21.0112 10.4208 21.232 11.8688 21.296 13.328H15.488V9.008H20.64ZM13.312 1.904V6.848H8.896C9.14282 6.25231 9.43154 5.67487 9.76 5.12C10.4999 3.64136 11.7673 2.49386 13.312 1.904ZM13.312 9.008V13.328H7.52C7.584 11.8688 7.8048 10.4208 8.176 9.008H13.312ZM5.792 13.312H1.776C1.90393 11.8138 2.29953 10.3506 2.944 8.992H6.4C6.05855 10.409 5.85493 11.8558 5.792 13.312ZM7.52 15.488H13.312V19.808H8.176C7.80486 18.3953 7.58496 16.9472 7.52 15.488ZM13.328 21.888V26.832C11.7861 26.246 10.5191 25.1046 9.776 23.632C9.44754 23.0771 9.15882 22.4997 8.912 21.904L13.328 21.888ZM15.488 26.832V21.968H19.904C19.6572 22.5637 19.3685 23.1411 19.04 23.696C18.2969 25.1686 17.0299 26.31 15.488 26.896V26.832ZM15.488 19.728V15.408H21.28C21.215 16.8672 20.9951 18.3153 20.624 19.728H15.488ZM23.024 15.408H27.04C26.9121 16.9062 26.5165 18.3694 25.872 19.728H22.4C22.736 18.336 22.9392 16.9168 23.008 15.488L23.024 15.408ZM23.024 13.248C22.9507 11.8181 22.7418 10.3984 22.4 9.008H25.856C26.5008 10.368 26.896 11.8304 27.024 13.328L23.024 13.248ZM24.624 6.848H21.76C21.2418 5.39248 20.4907 4.03076 19.536 2.816C21.527 3.70973 23.2564 5.09768 24.56 6.848H24.624ZM9.264 2.816C8.30931 4.03076 7.5582 5.39248 7.04 6.848H4.24C5.54355 5.09768 7.27299 3.70973 9.264 2.816ZM4.224 22.016H7.04C7.5582 23.4715 8.30931 24.8332 9.264 26.048C7.26748 25.1408 5.53751 23.7359 4.24 21.968L4.224 22.016ZM19.52 26.048C20.4747 24.8332 21.2258 23.4715 21.744 22.016H24.56C23.2485 23.7429 21.5197 25.1082 19.536 25.984L19.52 26.048Z" fill="#3A3B58"/>
</svg>
