<svg width="33" height="32" viewBox="0 0 33 32" fill="none" xmlns="http://www.w3.org/2000/svg">
<path d="M16.0217 0C13.9178 0 11.8343 0.413891 9.89044 1.2179C7.94659 2.02201 6.18045 3.2005 4.69263 4.6862C3.20489 6.17198 2.02478 7.93571 1.21957 9.87689C0.414459 11.8181 0 13.8987 0 15.9998C0 18.1009 0.414459 20.1815 1.21957 22.1227C2.02478 24.0639 3.20489 25.8276 4.69263 27.3134C6.18045 28.7991 7.94659 29.9776 9.89044 30.7817C11.8343 31.5857 13.9178 31.9996 16.0217 31.9996V23.9997C14.9697 23.9997 13.928 23.7928 12.9561 23.3907C11.9842 22.9887 11.101 22.3994 10.3572 21.6566C9.61331 20.9137 9.02325 20.0318 8.62069 19.0612C8.21805 18.0906 8.01086 17.0504 8.01086 15.9998C8.01086 14.9492 8.21805 13.9089 8.62069 12.9383C9.02325 11.9677 9.61331 11.0858 10.3572 10.343C11.101 9.60014 11.9842 9.01089 12.9561 8.60889C13.928 8.20679 14.9697 7.99989 16.0217 7.99989V0Z" fill="url(#paint0_linear_158_2043)"/>
<path d="M16.0218 21.3335C18.9714 21.3335 21.3624 18.9457 21.3624 16.0002C21.3624 13.0547 18.9714 10.667 16.0218 10.667C13.0723 10.667 10.6813 13.0547 10.6813 16.0002C10.6813 18.9457 13.0723 21.3335 16.0218 21.3335Z" fill="url(#paint1_linear_158_2043)"/>
<path d="M0 16C0 18.1011 0.414459 20.1817 1.21957 22.1229C2.02478 24.0641 3.20489 25.8278 4.69263 27.3136C6.18045 28.7993 7.94659 29.9778 9.89044 30.7819C11.8343 31.5859 13.9178 31.9998 16.0217 31.9998C18.1257 31.9998 20.2092 31.5859 22.153 30.7819C24.0969 29.9778 25.863 28.7993 27.3508 27.3136C28.8386 25.8278 30.0187 24.0641 30.8239 22.1229C31.629 20.1817 32.0434 18.1011 32.0434 16H24.0326C24.0326 17.0506 23.8254 18.0909 23.4228 19.0614C23.0202 20.032 22.4301 20.9139 21.6863 21.6568C20.9424 22.3996 20.0593 22.9889 19.0874 23.3909C18.1154 23.793 17.0738 23.9999 16.0217 23.9999C14.9697 23.9999 13.928 23.793 12.9561 23.3909C11.9842 22.9889 11.101 22.3996 10.3572 21.6568C9.61331 20.9139 9.02325 20.032 8.62069 19.0614C8.21805 18.0909 8.01086 17.0506 8.01086 16H0Z" fill="url(#paint2_linear_158_2043)"/>
<path d="M21.3625 16.0003C21.3625 14.5858 20.7998 13.2293 19.7983 12.2291C18.7967 11.2289 17.4383 10.667 16.0219 10.667C14.6055 10.667 13.2471 11.2289 12.2455 12.2291C11.244 13.2293 10.6813 14.5858 10.6813 16.0003H16.0219H21.3625Z" fill="url(#paint3_linear_158_2043)"/>
<defs>
<linearGradient id="paint0_linear_158_2043" x1="8.01086" y1="0" x2="8.01086" y2="31.9996" gradientUnits="userSpaceOnUse">
<stop stop-color="#1ABCFE"/>
<stop offset="1" stop-color="#1ABCFE" stop-opacity="0"/>
</linearGradient>
<linearGradient id="paint1_linear_158_2043" x1="16.0218" y1="10.667" x2="16.0218" y2="21.3335" gradientUnits="userSpaceOnUse">
<stop stop-color="#1ABCFE"/>
<stop offset="1" stop-color="#1ABCFE" stop-opacity="0"/>
</linearGradient>
<linearGradient id="paint2_linear_158_2043" x1="16.0217" y1="16" x2="16.0217" y2="31.9998" gradientUnits="userSpaceOnUse">
<stop stop-color="#1ABCFE"/>
<stop offset="1" stop-color="#1ABCFE" stop-opacity="0"/>
</linearGradient>
<linearGradient id="paint3_linear_158_2043" x1="16.0219" y1="10.667" x2="16.0219" y2="16.0003" gradientUnits="userSpaceOnUse">
<stop stop-color="#1ABCFE"/>
<stop offset="1" stop-color="#1ABCFE" stop-opacity="0"/>
</linearGradient>
</defs>
</svg>
