<svg width="32" height="32" viewBox="0 0 32 32" fill="none" xmlns="http://www.w3.org/2000/svg">
<path d="M21.3334 26.6667V29.3334H5.33335C3.86669 29.3334 2.66669 28.1334 2.66669 26.6667V9.33341H5.33335V26.6667H21.3334ZM26.6667 2.66675H10.6667C9.20002 2.66675 8.00002 3.86675 8.00002 5.33341V21.3334C8.00002 22.8001 9.20002 24.0001 10.6667 24.0001H26.6667C28.1334 24.0001 29.3334 22.8001 29.3334 21.3334V5.33341C29.3334 3.86675 28.1334 2.66675 26.6667 2.66675ZM20 18.6667H17.3334V16.0001H20V18.6667ZM22.4 11.7334C22 12.2667 21.4667 12.6667 20.9334 12.9334C20.6667 13.2001 20.4 13.3334 20.2667 13.6001C20 13.8667 20 14.2667 20 14.6667H17.3334C17.3334 14.0001 17.4667 13.4667 17.7334 13.0667C18 12.6667 18.4 12.2667 19.0667 11.8667C19.4667 11.6001 19.7334 11.3334 19.8667 11.0667C20.1334 10.8001 20.1334 10.4001 20.1334 10.0001C20.1334 9.60008 20 9.20008 19.7334 8.93341C19.4667 8.66675 19.2 8.53341 18.6667 8.53341C18.2667 8.53341 18 8.66675 17.7334 8.80008C17.4667 9.06675 17.3334 9.33341 17.3334 9.73341H14.8C14.8 8.66675 15.0667 7.86675 15.8667 7.33341C16.8 6.93341 17.7334 6.66675 18.9334 6.66675C20.1334 6.66675 21.2 6.93341 21.8667 7.60008C22.5334 8.26675 22.9334 9.06675 22.9334 10.0001C22.9334 10.6667 22.6667 11.2001 22.4 11.7334Z" fill="#3A3B58"/>
</svg>
