<svg width="58" height="58" viewBox="0 0 58 58" fill="none" xmlns="http://www.w3.org/2000/svg">
<g filter="url(#filter0_d_158_2099)">
<ellipse cx="28.7333" cy="25.3486" rx="24.5333" ry="24.5" fill="#40A5F3"/>
</g>
<path d="M28.3799 34.7956C28.5751 34.9905 28.8914 34.9905 29.0866 34.7956L38.1923 25.7022C38.3879 25.5069 38.3879 25.19 38.1923 24.9946L37.1826 23.9863C36.9874 23.7913 36.6712 23.7913 36.4759 23.9863L30.8132 29.6413C30.4982 29.9559 29.9599 29.7328 29.9599 29.2875V16.0484C29.9599 15.7723 29.7361 15.5484 29.4599 15.5484H28.0066C27.7304 15.5484 27.5066 15.7723 27.5066 16.0484V29.2875C27.5066 29.7328 26.9684 29.9559 26.6533 29.6413L20.9906 23.9863C20.7954 23.7913 20.4791 23.7913 20.2839 23.9863L19.2742 24.9946C19.0786 25.19 19.0786 25.5069 19.2742 25.7022L28.3799 34.7956Z" fill="white"/>
<defs>
<filter id="filter0_d_158_2099" x="0.199951" y="0.848633" width="57.0667" height="57" filterUnits="userSpaceOnUse" color-interpolation-filters="sRGB">
<feFlood flood-opacity="0" result="BackgroundImageFix"/>
<feColorMatrix in="SourceAlpha" type="matrix" values="0 0 0 0 0 0 0 0 0 0 0 0 0 0 0 0 0 0 127 0" result="hardAlpha"/>
<feOffset dy="4"/>
<feGaussianBlur stdDeviation="2"/>
<feComposite in2="hardAlpha" operator="out"/>
<feColorMatrix type="matrix" values="0 0 0 0 0 0 0 0 0 0 0 0 0 0 0 0 0 0 0.25 0"/>
<feBlend mode="normal" in2="BackgroundImageFix" result="effect1_dropShadow_158_2099"/>
<feBlend mode="normal" in="SourceGraphic" in2="effect1_dropShadow_158_2099" result="shape"/>
</filter>
</defs>
</svg>
